# Blender v2.78 (sub 0) OBJ File: 'Save_Sourroundind.blend'
# www.blender.org
mtllib Cube.mtl
o Bube_low_Cube.001
v 83.068733 -0.878780 7.581806
v 83.068733 14.284832 7.581806
v 83.068733 -0.878780 -7.581806
v 83.068733 14.284832 -7.581806
v 98.232338 -0.878780 7.581806
v 98.232338 14.284832 7.581806
v 98.232338 -0.878780 -7.581806
v 98.232338 14.284832 -7.581806
vt 0.3334 1.0002
vt 0.0000 1.0002
vt 0.0000 0.6668
vt 0.3334 0.6668
vt 0.3334 0.3334
vt 0.0000 0.3334
vt 0.0000 0.0000
vt 0.3334 0.0000
vt 1.0002 0.3334
vt 0.6668 0.3334
vt 0.6668 0.0000
vt 1.0002 0.0000
vt 0.0000 0.6668
vt 0.0000 0.3334
vt 0.3334 0.3334
vt 0.3334 0.6668
vt 0.6668 0.0000
vt 0.6668 0.3334
vt 0.6668 0.6668
vt 0.3334 0.6668
vt 0.3334 0.3334
vn -1.0000 0.0000 0.0000
vn 0.0000 0.0000 -1.0000
vn 1.0000 0.0000 0.0000
vn 0.0000 0.0000 1.0000
vn 0.0000 -1.0000 0.0000
vn 0.0000 1.0000 0.0000
usemtl None
s off
f 1/1/1 2/2/1 4/3/1 3/4/1
f 3/5/2 4/6/2 8/7/2 7/8/2
f 7/9/3 8/10/3 6/11/3 5/12/3
f 5/13/4 6/14/4 2/15/4 1/16/4
f 3/5/5 7/8/5 5/17/5 1/18/5
f 8/10/6 4/19/6 2/20/6 6/21/6
