# Blender v2.78 (sub 0) OBJ File: 'Save_Sourroundind.blend'
# www.blender.org
mtllib Ground.mtl
o Plane_Plane.002
v -109.926880 -1.186690 109.926880
v 109.926880 -1.186690 109.926880
v -109.926880 -1.186690 -109.926880
v 109.926880 -1.186690 -109.926880
v -109.926880 -1.186690 0.000000
v 0.000000 -1.186690 109.926880
v 109.926880 -1.186690 0.000000
v 0.000000 -1.186690 -109.926880
v -121.754578 -1.186690 121.754578
v 121.754578 -1.186690 121.754578
v -121.754578 -1.186690 -121.754578
v 121.754578 -1.186690 -121.754578
v -121.754578 -1.186690 0.000000
v 0.000000 -1.186690 121.754578
v 121.754578 -1.186690 0.000000
v 0.000000 -1.186690 -121.754578
v -121.754578 -31.455708 121.754578
v 121.754578 -31.455708 121.754578
v -121.754578 -31.455708 -121.754578
v 121.754578 -31.455708 -121.754578
v -121.754578 -31.455708 0.000000
v 0.000000 -31.455708 121.754578
v 121.754578 -31.455708 0.000000
v 0.000000 -31.455708 -121.754578
v 0.000000 -31.455708 0.000000
v -109.926880 -9.018414 0.000000
v -109.926880 -9.018414 109.926880
v 0.000000 -9.018414 109.926880
v 109.926880 -9.018414 109.926880
v 109.926880 -9.018414 0.000000
v 109.926880 -9.018414 -109.926880
v 0.000000 -9.018412 -109.926880
v -109.926880 -9.018414 -109.926880
v 0.000000 -9.018412 0.000000
vt 3.2149 2.7086
vt 3.2149 1.8057
vt 3.2825 1.8057
vt 3.2825 2.7086
vt 3.2149 2.7086
vt 3.2149 3.6114
vt 3.1473 3.6114
vt 3.1473 2.7086
vt 3.2149 3.6114
vt 3.2825 3.6114
vt 3.2149 1.8057
vt 3.1473 1.8057
vt 0.1021 1.9029
vt 1.0511 1.9029
vt 1.0511 2.0000
vt 0.0000 2.0000
vt 2.0000 1.0000
vt 2.0000 0.0971
vt 2.1021 0.0000
vt 2.1021 1.0000
vt 0.1021 1.0000
vt 0.0000 1.0000
vt 2.0000 1.9029
vt 2.1021 2.0000
vt 0.1021 0.0971
vt 0.0000 0.0000
vt 1.0511 0.0971
vt 1.0511 0.0000
vt 2.1021 2.8057
vt 2.1021 1.8057
vt 2.3634 1.8057
vt 2.3634 2.8057
vt 2.8860 2.8057
vt 2.8860 1.8057
vt 3.1473 1.8057
vt 3.1473 2.8057
vt 2.1021 3.8057
vt 2.3634 3.8057
vt 2.8860 3.8057
vt 3.1473 3.8057
vt 2.3634 2.8057
vt 2.3634 1.8057
vt 2.6247 1.8057
vt 2.6247 2.8057
vt 2.8860 2.8057
vt 2.6247 3.8057
vt 2.6247 2.8057
vt 2.3634 3.8057
vt 2.6247 3.8057
vt 2.8860 1.8057
vt 2.6247 1.8057
vt 2.1021 3.0000
vt 1.0511 3.0000
vt 1.0511 2.0000
vt 2.1021 2.0000
vt 1.0511 4.0000
vt 2.1021 4.0000
vt 0.0000 3.0000
vt 0.0000 4.0000
vt 0.0000 2.0000
vt 3.0511 0.9029
vt 3.0511 0.0000
vt 4.0000 0.0000
vt 4.0000 0.9029
vt 3.0511 1.8057
vt 4.0000 1.8057
vt 2.1021 1.8057
vt 2.1021 0.9029
vt 2.1021 0.0000
vt 3.2825 3.6114
vt 3.2825 2.7086
vt 3.3501 2.7086
vt 3.3501 3.6114
vt 3.4177 1.8057
vt 3.4177 2.7086
vt 3.3501 2.7086
vt 3.3501 1.8057
vt 3.2825 1.8057
vt 3.3501 1.8057
vt 3.4177 3.6114
vt 3.3501 3.6114
vn 0.0000 0.0000 -1.0000
vn 0.0000 0.0000 1.0000
vn 0.0000 1.0000 0.0000
vn 1.0000 0.0000 0.0000
vn -1.0000 0.0000 0.0000
vn 0.0000 -1.0000 0.0000
usemtl None
s off
f 6/1/1 2/2/1 29/3/1 28/4/1
f 8/5/2 3/6/2 33/7/2 32/8/2
f 1/9/1 6/1/1 28/4/1 27/10/1
f 4/11/2 8/5/2 32/8/2 31/12/2
f 1/13/3 5/14/3 13/15/3 9/16/3
f 8/17/3 4/18/3 12/19/3 16/20/3
f 6/21/3 1/13/3 9/16/3 14/22/3
f 3/23/3 8/17/3 16/20/3 11/24/3
f 2/25/3 6/21/3 14/22/3 10/26/3
f 7/27/3 2/25/3 10/26/3 15/28/3
f 5/14/3 3/23/3 11/24/3 13/15/3
f 4/18/3 7/27/3 15/28/3 12/19/3
f 15/29/4 10/30/4 18/31/4 23/32/4
f 13/33/5 11/34/5 19/35/5 21/36/5
f 12/37/4 15/29/4 23/32/4 20/38/4
f 9/39/5 13/33/5 21/36/5 17/40/5
f 16/41/1 12/42/1 20/43/1 24/44/1
f 14/45/2 9/39/2 17/46/2 22/47/2
f 11/48/1 16/41/1 24/44/1 19/49/1
f 10/50/2 14/45/2 22/47/2 18/51/2
f 22/52/6 25/53/6 23/54/6 18/55/6
f 21/56/6 25/53/6 22/52/6 17/57/6
f 24/58/6 25/53/6 21/56/6 19/59/6
f 20/60/6 23/54/6 25/53/6 24/58/6
f 34/61/3 30/62/3 31/63/3 32/64/3
f 26/65/3 34/61/3 32/64/3 33/66/3
f 27/67/3 28/68/3 34/61/3 26/65/3
f 28/68/3 29/69/3 30/62/3 34/61/3
f 2/70/5 7/71/5 30/72/5 29/73/5
f 3/74/4 5/75/4 26/76/4 33/77/4
f 7/71/5 4/78/5 31/79/5 30/72/5
f 5/75/4 1/80/4 27/81/4 26/76/4
